<svg width="24" height="24" viewBox="0 0 24 24" fill="none" xmlns="http://www.w3.org/2000/svg">
<g id="vital_signs">
<mask id="mask0_7_163" style="mask-type:alpha" maskUnits="userSpaceOnUse" x="0" y="0" width="24" height="24">
<rect id="Bounding box" width="24" height="24" fill="#D9D9D9"/>
</mask>
<g mask="url(#mask0_7_163)">
<path id="vital_signs_2" d="M9.21254 19.125C8.9657 19.125 8.74462 19.0523 8.54929 18.907C8.35379 18.7615 8.21045 18.5764 8.11929 18.3518L5.93479 12.75H1.51929V11.25H6.98854L9.21154 17.023L13.6963 5.63851C13.7871 5.41384 13.93 5.22884 14.1248 5.08351C14.3198 4.93818 14.5407 4.86551 14.7875 4.86551C15.0344 4.86551 15.2555 4.93818 15.4508 5.08351C15.6463 5.22884 15.7896 5.41384 15.8808 5.63851L18.0845 11.25H22.5V12.75H17.0308L14.7885 6.96726L10.3038 18.3518C10.213 18.5764 10.0701 18.7615 9.87529 18.907C9.68029 19.0523 9.45937 19.125 9.21254 19.125Z" fill="#1C1B1F"/>
</g>
</g>
</svg>
